<?xml version="1.0" encoding="UTF-8" standalone="no"?>
<svg width="58px" height="36px" viewBox="0 0 58 36" version="1.1" xmlns="http://www.w3.org/2000/svg" xmlns:xlink="http://www.w3.org/1999/xlink">
    <!-- Generator: Sketch 42 (36781) - http://www.bohemiancoding.com/sketch -->
    <title>CB</title>
    <desc>Created with Sketch.</desc>
    <defs></defs>
    <g id="Page-2" stroke="none" stroke-width="1" fill="none" fill-rule="evenodd">
        <g id="SaveUP.html-Copy-2" transform="translate(-241.000000, -22.000000)" fill="#28292B">
            <path d="M268.835938,45.6328125 C268.570311,49.3047059 267.214856,52.195302 264.769531,54.3046875 C262.324207,56.414073 259.101583,57.46875 255.101562,57.46875 C250.726541,57.46875 247.285169,55.9961085 244.777344,53.0507812 C242.269519,50.105454 241.015625,46.0625257 241.015625,40.921875 L241.015625,38.8359375 C241.015625,35.5546711 241.593744,32.664075 242.75,30.1640625 C243.906256,27.66405 245.558583,25.7461004 247.707031,24.4101562 C249.855479,23.0742121 252.351548,22.40625 255.195312,22.40625 C259.132832,22.40625 262.304675,23.460927 264.710938,25.5703125 C267.1172,27.679698 268.507811,30.6406059 268.882812,34.453125 L261.851562,34.453125 C261.679687,32.249989 261.066412,30.6523487 260.011719,29.6601562 C258.957026,28.6679638 257.351573,28.171875 255.195312,28.171875 C252.851551,28.171875 251.097662,29.0117104 249.933594,30.6914062 C248.769525,32.3711021 248.171875,34.9765448 248.140625,38.5078125 L248.140625,41.0859375 C248.140625,44.7734559 248.699213,47.4687415 249.816406,49.171875 C250.933599,50.8750085 252.6953,51.7265625 255.101562,51.7265625 C257.273448,51.7265625 258.894526,51.2304737 259.964844,50.2382812 C261.035162,49.2460888 261.648437,47.7109479 261.804688,45.6328125 L268.835938,45.6328125 Z M273.453125,57 L273.453125,22.875 L285.40625,22.875 C289.546896,22.875 292.687489,23.6679608 294.828125,25.2539062 C296.968761,26.8398517 298.039062,29.1640472 298.039062,32.2265625 C298.039062,33.8984459 297.609379,35.3710874 296.75,36.6445312 C295.890621,37.9179751 294.69532,38.8515595 293.164062,39.4453125 C294.914071,39.8828147 296.292964,40.7656184 297.300781,42.09375 C298.308599,43.4218816 298.8125,45.0468654 298.8125,46.96875 C298.8125,50.2500164 297.765635,52.7343666 295.671875,54.421875 C293.578115,56.1093834 290.593769,56.9687498 286.71875,57 L273.453125,57 Z M280.484375,42.140625 L280.484375,51.3515625 L286.507812,51.3515625 C288.164071,51.3515625 289.457027,50.9570352 290.386719,50.1679688 C291.316411,49.3789023 291.78125,48.2890695 291.78125,46.8984375 C291.78125,43.7734219 290.164079,42.1875002 286.929688,42.140625 L280.484375,42.140625 Z M280.484375,37.171875 L285.6875,37.171875 C289.234393,37.1093747 291.007812,35.6953263 291.007812,32.9296875 C291.007812,31.3828048 290.558598,30.2695346 289.660156,29.5898437 C288.761714,28.9101529 287.34376,28.5703125 285.40625,28.5703125 L280.484375,28.5703125 L280.484375,37.171875 Z" id="CB"></path>
        </g>
    </g>
</svg>