<svg xmlns="http://www.w3.org/2000/svg" viewBox="0 0 25 16"><path fill="#000" fill-rule="evenodd" d="M12.432 10.264c-.111 1.53-.676 2.734-1.695 3.613-1.019.879-2.361 1.318-4.028 1.318-1.823 0-3.257-.613-4.302-1.84C1.362 12.126.84 10.442.84 8.3v-.87c0-1.367.24-2.571.723-3.613.481-1.041 1.17-1.84 2.065-2.397.895-.557 1.935-.835 3.12-.835 1.64 0 2.962.44 3.965 1.318 1.002.88 1.582 2.113 1.738 3.701h-2.93c-.071-.918-.327-1.583-.766-1.997-.44-.413-1.109-.62-2.007-.62-.977 0-1.707.35-2.192 1.05-.485.7-.734 1.786-.747 3.257v1.074c0 1.537.232 2.66.698 3.37.465.709 1.2 1.064 2.202 1.064.905 0 1.58-.207 2.026-.62.446-.414.702-1.053.767-1.92h2.93zM14.355 15V.781h4.98c1.726 0 3.035.33 3.927.991.892.661 1.338 1.63 1.338 2.906 0 .696-.18 1.31-.538 1.84-.358.531-.856.92-1.494 1.168.73.182 1.304.55 1.724 1.103.42.553.63 1.23.63 2.031 0 1.368-.436 2.403-1.309 3.106-.872.703-2.116 1.061-3.73 1.074h-5.528zm2.93-6.191v3.837h2.51c.69 0 1.229-.164 1.616-.493.388-.328.581-.783.581-1.362 0-1.302-.674-1.963-2.021-1.982h-2.686zm0-2.07h2.168c1.478-.027 2.217-.616 2.217-1.768 0-.645-.187-1.109-.562-1.392-.374-.283-.965-.425-1.772-.425h-2.05v3.584z"/></svg>